<?xml version="1.0" encoding="UTF-8"?>
<svg version="1.1" xmlns="http://www.w3.org/2000/svg" width="2000" height="2000">
<path d="M0 0 C660 0 1320 0 2000 0 C2000 660 2000 1320 2000 2000 C1340 2000 680 2000 0 2000 C0 1340 0 680 0 0 Z " fill="#FEFEFE" transform="translate(0,0)"/>
<path d="M0 0 C6.33208623 5.09655721 9.1633773 12.34551059 10.72265625 20.19140625 C10.92572603 22.91960455 10.87487956 25.45138661 10.72265625 28.19140625 C10.0678125 28.289375 9.41296875 28.38734375 8.73828125 28.48828125 C-13.56172878 32.14195521 -30.46141258 43.69469472 -46.77734375 58.875 C-48.82166171 60.76918836 -50.89719279 62.5838868 -53.02734375 64.37890625 C-61.83368794 72.03659685 -70.21437581 80.52349281 -77.7421875 89.4375 C-79.50345863 91.44974107 -81.37214214 93.31512611 -83.27734375 95.19140625 C-87.15760062 99.0272327 -90.73241475 103.04656619 -94.27734375 107.19140625 C-95.18306569 108.2335321 -96.08936178 109.2751591 -96.99609375 110.31640625 C-103.54119337 117.85812897 -109.816182 125.56608309 -115.93164062 133.45898438 C-117.69298312 135.72648916 -119.46952991 137.9818085 -121.24682617 140.23681641 C-123.59541095 143.21769606 -125.93625838 146.20463566 -128.27734375 149.19140625 C-128.8069873 149.86655273 -129.33663086 150.54169922 -129.88232422 151.23730469 C-137.25953783 160.64998308 -144.51787875 170.14099396 -151.66870117 179.72680664 C-155.82636655 185.2891978 -160.05602775 190.78824442 -164.33984375 196.25390625 C-169.66518306 203.05605799 -174.83943403 209.9551595 -179.94189453 216.92578125 C-184.91506531 223.71840475 -189.96166029 230.45373622 -195.04077148 237.16748047 C-199.25092291 242.75343362 -203.29956462 248.43781935 -207.27734375 254.19140625 C-206.45234375 255.14015625 -205.62734375 256.08890625 -204.77734375 257.06640625 C-203.60986218 258.4407144 -202.44326246 259.81577197 -201.27734375 261.19140625 C-200.68566406 261.87074219 -200.09398437 262.55007813 -199.484375 263.25 C-172.29005332 295.60283218 -155.28099469 339.69732935 -138.22528076 378.06121826 C-137.25286466 380.24641525 -136.2775081 382.43027775 -135.30126953 384.61376953 C-129.35966185 397.90343979 -123.42639666 411.19679053 -117.6484375 424.55859375 C-110.22556532 441.71433183 -102.50922698 458.66286264 -94.17126465 475.39709473 C-93.57297943 476.59799523 -92.97573771 477.79941615 -92.3795166 479.00134277 C-82.94860894 498.00993769 -72.54638461 516.21481917 -61.27734375 534.19140625 C-60.34601879 535.69510483 -59.41497929 537.1989803 -58.484375 538.703125 C-54.19073927 545.58163231 -49.55356325 552.03073377 -44.27734375 558.19140625 C-43.19646484 559.45597656 -43.19646484 559.45597656 -42.09375 560.74609375 C-33.58840609 570.44542875 -23.87861774 581.01773651 -10.26953125 582.39453125 C-1.67904708 582.58472647 5.8801372 580.53190892 12.72265625 575.19140625 C13.52703125 574.32515625 13.52703125 574.32515625 14.34765625 573.44140625 C15.72265625 572.19140625 15.72265625 572.19140625 19.72265625 572.19140625 C19.29071466 581.91009201 15.35633839 587.20260866 8.49609375 593.9375 C-1.35098176 601.93998249 -12.67488925 605.41235674 -25.27734375 604.19140625 C-58.3670506 596.76786035 -82.60277358 570.29017938 -102.27734375 544.19140625 C-102.72287598 543.60810547 -103.1684082 543.02480469 -103.62744141 542.42382812 C-123.66090042 516.15469367 -138.72134705 486.80413756 -153.27632141 457.26954651 C-155.59937503 452.55575968 -157.94487995 447.8536939 -160.30078125 443.15625 C-164.26760702 435.23765134 -168.16318607 427.28554999 -172.02734375 419.31640625 C-172.54258606 418.25474243 -172.54258606 418.25474243 -173.0682373 417.17163086 C-177.65094973 407.72113922 -182.14984386 398.23899161 -186.52734375 388.69140625 C-192.29449529 376.11707785 -198.1998654 363.61889388 -204.27734375 351.19140625 C-204.63177551 350.46580505 -204.98620728 349.74020386 -205.35137939 348.99261475 C-207.77499482 344.03468527 -210.21193757 339.08354362 -212.66134644 334.13830566 C-213.47327754 332.49651369 -214.28256992 330.85341346 -215.08889771 329.2088623 C-227.19611741 302.73153138 -227.19611741 302.73153138 -248.27734375 284.19140625 C-248.60734375 283.86140625 -248.93734375 283.53140625 -249.27734375 283.19140625 C-248.90011357 277.92319168 -247.58221923 274.33391063 -244.90234375 269.81640625 C-244.55075195 269.22045654 -244.19916016 268.62450684 -243.83691406 268.01049805 C-240.11490401 261.77363808 -236.13760902 255.69678723 -232.16015625 249.62109375 C-229.83119899 246.0581484 -227.55428485 242.46600603 -225.296875 238.85742188 C-215.87759087 223.80503645 -206.06109421 209.00819146 -196.27734375 194.19140625 C-195.88641541 193.59900146 -195.49548706 193.00659668 -195.0927124 192.39624023 C-186.8177023 179.85837312 -178.44188497 167.41514433 -169.70410156 155.19482422 C-168.24751928 153.14952747 -166.80363352 151.09581636 -165.36328125 149.0390625 C-153.7419447 132.45226327 -141.67289997 116.2070101 -129.27734375 100.19140625 C-128.81263672 99.59021973 -128.34792969 98.9890332 -127.86914062 98.36962891 C-117.83145476 85.41090424 -107.58955289 72.579164 -96.44921875 60.546875 C-94.45110558 58.37985658 -92.51284531 56.17498107 -90.58984375 53.94140625 C-87.32020705 50.17940073 -83.8351108 46.67864488 -80.27734375 43.19140625 C-77.58984109 40.52652566 -74.93405582 37.83827955 -72.32421875 35.09765625 C-59.92987966 22.20769493 -46.25427832 11.31397251 -30.27734375 3.19140625 C-29.28476563 2.66546875 -28.2921875 2.13953125 -27.26953125 1.59765625 C-19.03004842 -2.35729551 -8.3735391 -4.62091609 0 0 Z " fill="#010101" transform="translate(1250.27734375,701.80859375)"/>
<path d="M0 0 C1.30578003 -0.03311279 1.30578003 -0.03311279 2.63793945 -0.06689453 C6.31530803 -0.05440522 8.55995235 0.06516141 11.76171875 1.96484375 C13.84098249 5.57079977 13.92509588 8.45108543 13.1875 12.4375 C11.78146792 16.73725186 9.97924523 20.84887831 8.1875 25 C-4.3267966 54.91436465 -14.57372339 86.08182762 -22.8125 117.4375 C-23.10914551 118.55914551 -23.40579102 119.68079102 -23.71142578 120.83642578 C-25.22063279 126.5608102 -26.7064479 132.29060313 -28.16796875 138.02734375 C-29.18263922 142.00733692 -30.22130142 145.97851264 -31.30078125 149.94140625 C-35.19156439 164.30133864 -38.34457376 178.79007533 -41.43562317 193.33833313 C-41.60253159 194.1238707 -41.76944 194.90940826 -41.94140625 195.71875 C-42.10593796 196.49353195 -42.27046967 197.2683139 -42.43998718 198.0665741 C-43.47815856 202.93389118 -44.58220673 207.7806006 -45.74365234 212.62011719 C-49.66754807 229.03648435 -52.39640372 245.71768053 -55.35470581 262.32843018 C-56.32951101 267.78830693 -57.33479824 273.24045313 -58.37890625 278.6875 C-66.9256903 323.50487871 -74.28172697 369.52813033 -76.3828125 415.15234375 C-76.42276337 416.00030014 -76.46271423 416.84825653 -76.50387573 417.72190857 C-76.68385324 421.6911872 -76.82997767 425.65723864 -76.91748047 429.62963867 C-76.96557025 431.01612198 -77.01389544 432.40259715 -77.0625 433.7890625 C-77.08828125 434.98354004 -77.1140625 436.17801758 -77.140625 437.40869141 C-77.8125 440.4375 -77.8125 440.4375 -80.20532227 442.8269043 C-83.90461584 445.11215944 -86.19238596 444.86107226 -90.37890625 444.2265625 C-95.47052755 442.57566763 -97.44383661 438.82133093 -99.9921875 434.3828125 C-106.78988273 420.04314884 -105.17893939 401.09681636 -105.125 385.625 C-105.12350952 384.5595697 -105.12201904 383.4941394 -105.1204834 382.39642334 C-105.02890512 345.36667714 -102.90284445 308.30273061 -98.09179688 271.57904053 C-97.80359564 269.36922478 -97.52228843 267.1586101 -97.2421875 264.94775391 C-94.5265514 243.61681756 -91.03147612 222.5215627 -86.8125 201.4375 C-86.56886719 200.20451172 -86.32523438 198.97152344 -86.07421875 197.70117188 C-81.43584986 174.29849246 -76.37292266 150.95481264 -69.265625 128.1640625 C-67.99908715 124.09932035 -66.84838829 120.00997103 -65.71826172 115.90551758 C-44.81421735 40.43921735 -44.81421735 40.43921735 -20.8125 16.4375 C-29.55295 16.91409015 -37.90195194 18.00491099 -46.4375 19.9375 C-47.58903564 20.19668213 -48.74057129 20.45586426 -49.92700195 20.72290039 C-68.45202151 25.06303347 -86.66299702 31.16522504 -103.8125 39.4375 C-104.46186523 39.74510254 -105.11123047 40.05270508 -105.78027344 40.36962891 C-126.17551038 50.06548323 -144.34544178 62.13358689 -161.25195312 77.0871582 C-162.75846698 78.39074521 -164.31624224 79.63435607 -165.875 80.875 C-169.12942753 83.71396869 -171.69212114 86.71157476 -174.3125 90.125 C-174.79025879 90.74366943 -175.26801758 91.36233887 -175.76025391 91.99975586 C-185.66576328 104.99757719 -191.98730062 118.37851152 -192 134.875 C-192.01836914 136.12506836 -192.01836914 136.12506836 -192.03710938 137.40039062 C-192.04827573 142.10887126 -191.8151033 146.07566542 -189.8125 150.4375 C-187.43130754 151.84007876 -187.43130754 151.84007876 -184.8125 152.4375 C-183.8225 152.7675 -182.8325 153.0975 -181.8125 153.4375 C-182.03344407 156.53071692 -182.87169781 157.49509787 -185.125 159.6875 C-189.925027 162.59520866 -195.42744593 162.11063176 -200.8125 161.4375 C-208.66409223 159.38978536 -214.04777382 154.77007089 -218.35546875 148.01953125 C-223.86180379 137.0839807 -223.49438216 123.12335173 -220.25 111.5 C-216.06238886 100.06460034 -209.93743216 90.45731105 -201.8125 81.4375 C-200.89210938 80.41076172 -200.89210938 80.41076172 -199.953125 79.36328125 C-152.60208687 29.48280732 -67.17986617 0.86729688 0 0 Z " fill="#020202" transform="translate(1018.8125,719.5625)"/>
</svg>
